<svg width="100" height="100" viewBox="0 0 100 100" fill="none" xmlns="http://www.w3.org/2000/svg">
<path d="M30.5 77.2C30.5 77.2 33.1 75.3 33.9 74.4C34.7 73.5 35.9 71.9 35.9 71.9C35.9 71.9 31.2 71.2 28 70.3C24.8 69.4 18.3 66.6 18.3 66.6C18.3 66.6 19.6 66.2 21.2 65.2C22.8 64.1 23.2 63.5 23.2 63.5C23.2 63.5 18.5 62.2 15.7 61.1C12.9 60.1 8.4 58.2 8.4 58.2C8.4 58.2 9.8 58 11.2 56.9C12.6 55.8 12.7 54.7 12.7 54.7C12.7 54.7 8.4 53.3 6 51.9C3.6 50.4 0.699997 48.2 0.699997 48.2C0.699997 48.2 5.9 44.2 9.4 42.7C12.9 41.2 18.5 40.1 18.5 40.1C18.5 40.1 17.6 38.6 16.4 37.5C15.3 36.4 12.2 34.6 12.2 34.6C12.2 34.6 17.8 32.7 20.5 32.1C23.2 31.5 28.7 32.1 28.7 32.1C28.7 32.1 28.6 31 27.4 29.9C26.2 28.8 24.7 27.9 24.7 27.9C24.7 27.9 32 25.4 36 24.4C40 23.4 46.8 23.8 46.8 23.8C46.8 23.8 45.1 22.1 44 21C42.9 19.9 41.3 18.7 41.3 18.7C41.3 18.7 46.7 18.3 50.4 18.3C54.1 18.4 59.9 19.4 59.9 19.4C59.9 19.4 59.2 18.4 58.5 17.1C57.7 15.8 57 14.5 57 14.5C57 14.5 64.1 16.2 66.5 17.3C68.9 18.3 74.1 21.2 74.1 21.2C74.1 21.2 74 19.4 73.1 17.7C72.2 16 71.3 14.7 71.3 14.7C71.3 14.7 99 31.9 99.4 48.2C99.5 50 99.3 51.9 99.1 53.7C97.6 53 96 52.4 94.4 51.9C92.1 45.6 90.1 42 88 39.3C85.6 36.4 81.1 31.3 78.4 30.2C80.7 32.1 85.2 36.4 88.1 42C90.4 46.6 91.1 47.6 91.9 51.2C88.3 50.1 84.6 49.3 80.9 48.7C80.2 48.6 79.5 48.5 78.8 48.4C76.8 44.1 74.4 39.6 71.2 36.9C67.5 33.7 62.9 30.2 60.1 29.4C62.7 30.9 68.8 36.2 71.9 40.3C74.1 43.3 74.8 45.4 75.9 48C70.9 47.4 66 47.1 61 46.9C59 43.2 56.5 39.4 53.4 37.3C50 34.9 45.8 32.3 43.4 31.8C45.7 32.9 51.3 36.9 54.2 40.1C56.5 42.7 57.2 44.5 58.4 47C47.3 47.4 36.4 48.7 25.6 50.6C35 49.8 44.5 49.6 53.9 50C52.8 51.7 52.1 53 50.1 54.7C47.5 56.9 42.6 59.2 40.6 59.6C42.6 59.7 46.2 58.3 49.2 57C51.9 55.7 54.3 52.9 56.3 50.1C58.1 50.2 59.8 50.3 61.6 50.4C64.5 50.5 67.4 50.7 70.3 50.9C68.9 53.9 68.3 55.9 65.7 59C62.6 62.6 56.6 67 54.1 68.2C56.8 67.8 61.3 64.9 64.9 62.3C68.2 59.9 70.9 55.5 73 51.3C75.7 51.6 78.4 51.9 81.1 52.4C83.1 52.7 85 53.1 87 53.6C85.1 57.7 85 58.2 82 61.6C78.6 65.5 72.9 70.5 70.4 72C73.3 71.3 78.9 67.3 81.5 65.3C83.9 63.5 87.3 59.8 89.7 54.2C92.7 55 95.6 56.1 98.4 57.4C95.3 70.3 86.5 81.5 86.5 81.5C86.5 81.5 86.7 79.8 86 77.6C85.2 75.4 85 75.6 85 75.6C85 75.6 83.9 78.5 80 82.4C76.1 86.3 71.1 87.4 71.1 87.4C71.1 87.4 71.8 86.3 71.9 85C72 83.7 71.6 83 71.6 83C71.6 83 69 84.9 66.3 86C63.6 87.2 57.7 88.5 57.7 88.5C57.7 88.5 59.3 86.6 59.6 85.5C59.9 84.5 59.3 83.6 59.3 83.6C59.3 83.6 55.4 85.1 51.8 85.1C48.2 85.1 44.1 83.6 44.1 83.6C44.1 83.6 45.1 83.1 45.8 81.8C46.6 80.5 46 79.9 46 79.9C46 79.9 41.6 80.4 38.5 80C35.6 79.3 30.5 77.2 30.5 77.2Z" fill="#314C2B"/>
</svg>
