<svg width="166" height="166" viewBox="0 0 166 166" fill="none" xmlns="http://www.w3.org/2000/svg">
<path d="M83 0C85.3684 2.16451 86.7852 4.20707 88.2014 7.07812C88.6094 7.89749 89.0173 8.71685 89.4376 9.56104C90.0892 10.8921 90.0892 10.8921 90.7539 12.25C91.4444 13.641 91.4444 13.641 92.1489 15.0601C93.6258 18.0373 95.0946 21.0184 96.5625 24C98.4772 27.8766 100.396 31.7514 102.316 35.625C102.798 36.596 103.279 37.567 103.774 38.5674C106.686 44.4222 109.673 50.2284 112.746 56C117.098 64.1845 121.269 72.4556 125.406 80.75C125.733 81.4059 126.061 82.0619 126.398 82.7377C129.111 88.1774 131.818 93.6197 134.526 99.062C136.879 103.793 139.235 108.522 141.594 113.25C141.918 113.9 142.242 114.55 142.576 115.22C147.579 125.238 152.699 135.188 157.973 145.066C164.406 157.185 164.406 157.185 166 161C165.67 161.66 165.34 162.32 165 163C164.452 162.014 163.904 161.028 163.34 160.012C162.966 159.339 162.593 158.667 162.208 157.974C161.339 156.411 160.471 154.847 159.603 153.284C156.89 148.399 154.174 143.517 151.453 138.637C144.749 126.603 138.103 114.542 131.559 102.421C127.251 94.4462 122.87 86.5154 118.452 78.6016C115.73 73.7243 113.014 68.8438 110.3 63.9626C109.347 62.2502 108.394 60.5386 107.44 58.8269C103.227 51.2526 99.0905 43.641 95 36C96.5022 45.7129 99.0328 55.1047 101.578 64.582C102.032 66.2847 102.486 67.9875 102.939 69.6904C104.13 74.1594 105.325 78.627 106.522 83.0944C107.483 86.6836 108.44 90.2739 109.397 93.8642C110.332 97.3698 111.267 100.875 112.203 104.38C112.66 106.094 113.117 107.807 113.574 109.52C115.689 117.451 117.809 125.378 120.045 133.275C120.336 134.311 120.628 135.347 120.928 136.414C121.444 138.236 121.968 140.056 122.502 141.873C123.576 145.668 124.182 148.227 123 152C111.333 114.667 99.6667 77.3333 88 40C87.21 46.4144 86.7861 52.7432 86.6111 59.2014C86.567 60.6664 86.567 60.6664 86.522 62.161C86.4266 65.3586 86.3363 68.5562 86.2461 71.7539C86.1806 73.9831 86.1147 76.2122 86.0486 78.4414C85.8761 84.2856 85.7079 90.1299 85.5406 95.9742C85.369 101.947 85.1931 107.92 85.0176 113.893C84.6743 125.595 84.3357 137.297 84 149C83.67 149 83.34 149 83 149C82.2943 134.648 81.7502 120.303 81.4375 105.938C81.4163 105 81.3951 104.062 81.3733 103.095C80.8852 81.0641 80.8977 59.0352 81 37C80.34 37 79.68 37 79 37C78.8126 38.5335 78.8126 38.5335 78.6214 40.0979C78.0438 43.7249 77.1967 46.9493 76.0574 50.4338C75.6554 51.6733 75.2533 52.9127 74.8391 54.1897C74.3967 55.534 73.9543 56.8783 73.5117 58.2227C73.0515 59.6352 72.5918 61.048 72.1327 62.4609C71.1598 65.4512 70.1837 68.4403 69.2047 71.4286C67.6852 76.0667 66.1734 80.7073 64.6636 85.3486C64.4147 86.1136 64.1659 86.8787 63.9095 87.6669C63.4089 89.2058 62.9083 90.7448 62.4078 92.2838C61.6615 94.5778 60.9146 96.8715 60.1675 99.1651C56.258 111.174 52.4108 123.202 48.625 135.25C48.3769 136.039 48.1288 136.828 47.8731 137.641C46.5785 141.759 45.2871 145.879 44 150C42.3323 145.91 43.7368 142.291 44.8867 138.248C45.0997 137.469 45.3126 136.691 45.532 135.89C46.2413 133.307 46.9644 130.728 47.6875 128.148C48.1887 126.333 48.689 124.518 49.1885 122.703C50.5122 117.9 51.8474 113.1 53.1852 108.302C54.5166 103.519 55.8382 98.7342 57.1602 93.9492C58.6951 88.3951 60.2307 82.8411 61.7712 77.2885C65.5836 63.544 69.3306 49.7834 73 36C64.9962 50.3794 57.0428 64.7864 49.0967 79.1978C46.3941 84.0991 43.6901 88.9998 40.9861 93.9004C39.6599 96.3039 38.3339 98.7076 37.0081 101.111C33.9821 106.597 30.955 112.083 27.9232 117.565C26.5566 120.037 25.1906 122.509 23.8248 124.981C23.1541 126.194 22.4831 127.408 21.812 128.621C18.2282 135.101 14.6695 141.592 11.1758 148.121C10.576 149.24 9.97615 150.358 9.35815 151.51C8.22821 153.623 7.10313 155.737 5.98364 157.855C5.23764 159.249 5.23764 159.249 4.47656 160.672C4.04424 161.488 3.61192 162.303 3.1665 163.144C2 165 2 165 0 166C1.59518 160.616 3.96906 155.8 6.5 150.812C7.07621 149.661 7.07621 149.661 7.66406 148.486C9.74203 144.36 11.8586 140.256 14.0293 136.177C19.2969 126.271 24.398 116.289 29.4062 106.25C29.733 105.595 30.0597 104.94 30.3963 104.266C32.767 99.5119 35.1339 94.7561 37.5 90C40.1953 84.582 42.8922 79.1649 45.5938 73.75C45.9202 73.0956 46.2466 72.4413 46.5829 71.7671C50.7864 63.3478 55.0663 54.9755 59.4853 46.6669C64.3687 37.4682 68.9859 28.136 73.625 18.8125C74.5428 16.9719 75.4607 15.1314 76.3789 13.291C78.5881 8.86176 80.7948 4.43126 83 0ZM93 33C94 35 94 35 94 35L93 33Z" fill="#F0E8DC"/>
</svg>
